REM DIRINDEX 1\2\4\8,1\2\4\9,1\2\4\10,1\2\5\11,1\2\5\12,1\2\5\13,1\2\5\14,1\2\5\15,1\3\6\16,1\3\6\17,1\3\6\18,1\3\7\19,1\3\7\20,1\3\7\21,1\3\7\22,1\3\7\23
REM DIRNAME "folder01","folder02","folder03","folder04","folder05","folder06","folder07","folder08","folder09","folder10","folder11","folder12","folder13","folder14","folder15","folder16","folder17","folder18","folder19","folder20","folder21","folder22","folder23"
TITLE ""
FILE "LR_black_phrase_E_A03.mp3" MP3
  TRACK 01 AUDIO
    TITLE "0:"
    INDEX 01 00:00:00
  TRACK 02 AUDIO
    TITLE "16:cjc171_08181"
    INDEX 01 00:00:08
  TRACK 03 AUDIO
    TITLE "0:"
    INDEX 01 00:01:31
  TRACK 04 AUDIO
    TITLE "17:cjc171_08182"
    INDEX 01 00:01:63
  TRACK 05 AUDIO
    TITLE "0:"
    INDEX 01 00:04:06
  TRACK 06 AUDIO
    TITLE "18:cjc171_08183"
    INDEX 01 00:04:59
  TRACK 07 AUDIO
    TITLE "0:"
    INDEX 01 00:07:03
  TRACK 08 AUDIO
    TITLE "16:cjc171_08184"
    INDEX 01 00:08:08
  TRACK 09 AUDIO
    TITLE "0:"
    INDEX 01 00:09:31
  TRACK 10 AUDIO
    TITLE "17:cjc171_08185"
    INDEX 01 00:09:62
  TRACK 11 AUDIO
    TITLE "0:"
    INDEX 01 00:11:51
  TRACK 12 AUDIO
    TITLE "18:cjc171_08186"
    INDEX 01 00:12:33
  TRACK 13 AUDIO
    TITLE "0:"
    INDEX 01 00:14:20
  TRACK 14 AUDIO
    TITLE "16:cjc171_08187"
    INDEX 01 00:15:27
  TRACK 15 AUDIO
    TITLE "0:"
    INDEX 01 00:16:50
  TRACK 16 AUDIO
    TITLE "17:cjc171_08188"
    INDEX 01 00:17:05
  TRACK 17 AUDIO
    TITLE "0:"
    INDEX 01 00:19:39
  TRACK 18 AUDIO
    TITLE "18:cjc171_08189"
    INDEX 01 00:20:19
  TRACK 19 AUDIO
    TITLE "0:"
    INDEX 01 00:22:55
  TRACK 20 AUDIO
    TITLE "16:cjc171_08190"
    INDEX 01 00:23:52
  TRACK 21 AUDIO
    TITLE "0:"
    INDEX 01 00:25:04
  TRACK 22 AUDIO
    TITLE "17:cjc171_08191"
    INDEX 01 00:25:32
  TRACK 23 AUDIO
    TITLE "0:"
    INDEX 01 00:27:62
  TRACK 24 AUDIO
    TITLE "18:cjc171_08192"
    INDEX 01 00:28:42
  TRACK 25 AUDIO
    TITLE "0:"
    INDEX 01 00:30:72
  TRACK 26 AUDIO
    TITLE "16:cjc171_08193"
    INDEX 01 00:32:04
  TRACK 27 AUDIO
    TITLE "0:"
    INDEX 01 00:33:14
  TRACK 28 AUDIO
    TITLE "17:cjc171_08194"
    INDEX 01 00:33:39
  TRACK 29 AUDIO
    TITLE "0:"
    INDEX 01 00:36:10
  TRACK 30 AUDIO
    TITLE "18:cjc171_08195"
    INDEX 01 00:36:55
  TRACK 31 AUDIO
    TITLE "0:"
    INDEX 01 00:39:24
  TRACK 32 AUDIO
    TITLE "16:cjc171_08196"
    INDEX 01 00:40:20
  TRACK 33 AUDIO
    TITLE "0:"
    INDEX 01 00:41:33
  TRACK 34 AUDIO
    TITLE "17:cjc171_08197"
    INDEX 01 00:41:64
  TRACK 35 AUDIO
    TITLE "0:"
    INDEX 01 00:44:08
  TRACK 36 AUDIO
    TITLE "18:cjc171_08198"
    INDEX 01 00:44:72
  TRACK 37 AUDIO
    TITLE "0:"
    INDEX 01 00:47:16
  TRACK 38 AUDIO
    TITLE "16:cjc171_08199"
    INDEX 01 00:48:31
  TRACK 39 AUDIO
    TITLE "0:"
    INDEX 01 00:49:54
  TRACK 40 AUDIO
    TITLE "17:cjc171_08200"
    INDEX 01 00:50:10
  TRACK 41 AUDIO
    TITLE "0:"
    INDEX 01 00:52:23
  TRACK 42 AUDIO
    TITLE "18:cjc171_08201"
    INDEX 01 00:53:03
  TRACK 43 AUDIO
    TITLE "0:"
    INDEX 01 00:55:15
  TRACK 44 AUDIO
    TITLE "16:cjc171_08202"
    INDEX 01 00:56:19
  TRACK 45 AUDIO
    TITLE "0:"
    INDEX 01 00:57:59
  TRACK 46 AUDIO
    TITLE "17:cjc171_08203"
    INDEX 01 00:58:14
  TRACK 47 AUDIO
    TITLE "0:"
    INDEX 01 01:00:12
  TRACK 48 AUDIO
    TITLE "18:cjc171_08204"
    INDEX 01 01:00:67
  TRACK 49 AUDIO
    TITLE "0:"
    INDEX 01 01:02:64
  TRACK 50 AUDIO
    TITLE "16:cjc171_08205"
    INDEX 01 01:03:70
  TRACK 51 AUDIO
    TITLE "0:"
    INDEX 01 01:05:22
  TRACK 52 AUDIO
    TITLE "17:cjc171_08206"
    INDEX 01 01:05:53
  TRACK 53 AUDIO
    TITLE "0:"
    INDEX 01 01:07:46
  TRACK 54 AUDIO
    TITLE "18:cjc171_08207"
    INDEX 01 01:08:24
  TRACK 55 AUDIO
    TITLE "0:"
    INDEX 01 01:10:19
  TRACK 56 AUDIO
    TITLE "16:cjc171_08208"
    INDEX 01 01:11:18
  TRACK 57 AUDIO
    TITLE "0:"
    INDEX 01 01:12:37
  TRACK 58 AUDIO
    TITLE "17:cjc171_08209"
    INDEX 01 01:12:53
  TRACK 59 AUDIO
    TITLE "0:"
    INDEX 01 01:14:26
  TRACK 60 AUDIO
    TITLE "18:cjc171_08210"
    INDEX 01 01:14:66
  TRACK 61 AUDIO
    TITLE "0:"
    INDEX 01 01:16:39
  TRACK 62 AUDIO
    TITLE "16:cjc171_08211"
    INDEX 01 01:17:36
  TRACK 63 AUDIO
    TITLE "0:"
    INDEX 01 01:18:61
  TRACK 64 AUDIO
    TITLE "17:cjc171_08212"
    INDEX 01 01:19:18
  TRACK 65 AUDIO
    TITLE "0:"
    INDEX 01 01:21:17
  TRACK 66 AUDIO
    TITLE "18:cjc171_08213"
    INDEX 01 01:21:70
  TRACK 67 AUDIO
    TITLE "0:"
    INDEX 01 01:23:68
  TRACK 68 AUDIO
    TITLE "16:cjc171_08214"
    INDEX 01 01:24:74
  TRACK 69 AUDIO
    TITLE "0:"
    INDEX 01 01:26:24
  TRACK 70 AUDIO
    TITLE "17:cjc171_08215"
    INDEX 01 01:26:49
  TRACK 71 AUDIO
    TITLE "0:"
    INDEX 01 01:28:30
  TRACK 72 AUDIO
    TITLE "18:cjc171_08216"
    INDEX 01 01:29:04
  TRACK 73 AUDIO
    TITLE "0:"
    INDEX 01 01:30:66
  TRACK 74 AUDIO
    TITLE "16:cjc171_08217"
    INDEX 01 01:31:68
  TRACK 75 AUDIO
    TITLE "0:"
    INDEX 01 01:33:10
  TRACK 76 AUDIO
    TITLE "17:cjc171_08218"
    INDEX 01 01:33:41
  TRACK 77 AUDIO
    TITLE "0:"
    INDEX 01 01:35:60
  TRACK 78 AUDIO
    TITLE "18:cjc171_08219"
    INDEX 01 01:36:40
  TRACK 79 AUDIO
    TITLE "0:"
    INDEX 01 01:38:58
  TRACK 80 AUDIO
    TITLE "16:cjc171_08220"
    INDEX 01 01:39:65
  TRACK 81 AUDIO
    TITLE "0:"
    INDEX 01 01:40:69
  TRACK 82 AUDIO
    TITLE "17:cjc171_08221"
    INDEX 01 01:41:21
  TRACK 83 AUDIO
    TITLE "0:"
    INDEX 01 01:42:64
  TRACK 84 AUDIO
    TITLE "18:cjc171_08222"
    INDEX 01 01:43:46
  TRACK 85 AUDIO
    TITLE "0:"
    INDEX 01 01:45:09
  TRACK 86 AUDIO
    TITLE "16:cjc171_08223"
    INDEX 01 01:46:13
  TRACK 87 AUDIO
    TITLE "0:"
    INDEX 01 01:47:41
  TRACK 88 AUDIO
    TITLE "17:cjc171_08224"
    INDEX 01 01:47:73
  TRACK 89 AUDIO
    TITLE "0:"
    INDEX 01 01:49:60
  TRACK 90 AUDIO
    TITLE "18:cjc171_08225"
    INDEX 01 01:50:40
  TRACK 91 AUDIO
    TITLE "0:"
    INDEX 01 01:52:27
  TRACK 92 AUDIO
    TITLE "16:cjc171_08226"
    INDEX 01 01:53:24
  TRACK 93 AUDIO
    TITLE "0:"
    INDEX 01 01:54:67
  TRACK 94 AUDIO
    TITLE "17:cjc171_08227"
    INDEX 01 01:55:16
  TRACK 95 AUDIO
    TITLE "0:"
    INDEX 01 01:58:02
  TRACK 96 AUDIO
    TITLE "18:cjc171_08228"
    INDEX 01 01:58:47
  TRACK 97 AUDIO
    TITLE "0:"
    INDEX 01 02:01:34
  TRACK 98 AUDIO
    TITLE "16:cjc171_08229"
    INDEX 01 02:02:29
  TRACK 99 AUDIO
    TITLE "0:"
    INDEX 01 02:03:52
  TRACK 100 AUDIO
    TITLE "17:cjc171_08230"
    INDEX 01 02:03:72
  TRACK 101 AUDIO
    TITLE "0:"
    INDEX 01 02:06:13
  TRACK 102 AUDIO
    TITLE "18:cjc171_08231"
    INDEX 01 02:06:58
  TRACK 103 AUDIO
    TITLE "0:"
    INDEX 01 02:08:73
  TRACK 104 AUDIO
    TITLE "16:cjc171_08232"
    INDEX 01 02:09:69
  TRACK 105 AUDIO
    TITLE "0:"
    INDEX 01 02:11:20
  TRACK 106 AUDIO
    TITLE "17:cjc171_08233"
    INDEX 01 02:11:42
  TRACK 107 AUDIO
    TITLE "0:"
    INDEX 01 02:13:43
  TRACK 108 AUDIO
    TITLE "18:cjc171_08234"
    INDEX 01 02:14:15
  TRACK 109 AUDIO
    TITLE "0:"
    INDEX 01 02:16:16
  TRACK 110 AUDIO
    TITLE "16:cjc171_08235"
    INDEX 01 02:17:17
  TRACK 111 AUDIO
    TITLE "0:"
    INDEX 01 02:18:54
  TRACK 112 AUDIO
    TITLE "17:cjc171_08236"
    INDEX 01 02:19:06
  TRACK 113 AUDIO
    TITLE "0:"
    INDEX 01 02:21:58
  TRACK 114 AUDIO
    TITLE "18:cjc171_08237"
    INDEX 01 02:22:38
  TRACK 115 AUDIO
    TITLE "0:"
    INDEX 01 02:25:11
  TRACK 116 AUDIO
    TITLE "16:cjc171_08238"
    INDEX 01 02:26:18
  TRACK 117 AUDIO
    TITLE "0:"
    INDEX 01 02:27:33
  TRACK 118 AUDIO
    TITLE "17:cjc171_08239"
    INDEX 01 02:27:63
  TRACK 119 AUDIO
    TITLE "0:"
    INDEX 01 02:29:65
  TRACK 120 AUDIO
    TITLE "18:cjc171_08240"
    INDEX 01 02:30:47
  TRACK 121 AUDIO
    TITLE "0:"
    INDEX 01 02:32:48
  TRACK 122 AUDIO
    TITLE "16:cjc171_08241"
    INDEX 01 02:33:51
  TRACK 123 AUDIO
    TITLE "0:"
    INDEX 01 02:35:09
  TRACK 124 AUDIO
    TITLE "17:cjc171_08242"
    INDEX 01 02:35:37
  TRACK 125 AUDIO
    TITLE "0:"
    INDEX 01 02:37:33
  TRACK 126 AUDIO
    TITLE "18:cjc171_08243"
    INDEX 01 02:38:11
  TRACK 127 AUDIO
    TITLE "0:"
    INDEX 01 02:40:08
  TRACK 128 AUDIO
    TITLE "16:cjc171_08244"
    INDEX 01 02:41:10
  TRACK 129 AUDIO
    TITLE "0:"
    INDEX 01 02:42:33
  TRACK 130 AUDIO
    TITLE "17:cjc171_08245"
    INDEX 01 02:42:54
  TRACK 131 AUDIO
    TITLE "0:"
    INDEX 01 02:45:47
  TRACK 132 AUDIO
    TITLE "18:cjc171_08246"
    INDEX 01 02:46:17
  TRACK 133 AUDIO
    TITLE "0:"
    INDEX 01 02:49:09
  TRACK 134 AUDIO
    TITLE "16:cjc171_08247"
    INDEX 01 02:50:05
  TRACK 135 AUDIO
    TITLE "0:"
    INDEX 01 02:51:16
  TRACK 136 AUDIO
    TITLE "17:cjc171_08248"
    INDEX 01 02:51:41
  TRACK 137 AUDIO
    TITLE "0:"
    INDEX 01 02:54:24
  TRACK 138 AUDIO
    TITLE "18:cjc171_08249"
    INDEX 01 02:54:73
  TRACK 139 AUDIO
    TITLE "0:"
    INDEX 01 02:57:54
  TRACK 140 AUDIO
    TITLE "16:cjc171_08250"
    INDEX 01 02:58:51
  TRACK 141 AUDIO
    TITLE "0:"
    INDEX 01 02:59:61
  TRACK 142 AUDIO
    TITLE "17:cjc171_08251"
    INDEX 01 03:00:09
  TRACK 143 AUDIO
    TITLE "0:"
    INDEX 01 03:02:45
  TRACK 144 AUDIO
    TITLE "18:cjc171_08252"
    INDEX 01 03:03:27
  TRACK 145 AUDIO
    TITLE "0:"
    INDEX 01 03:05:65
  TRACK 146 AUDIO
    TITLE "16:cjc171_08253"
    INDEX 01 03:06:74
  TRACK 147 AUDIO
    TITLE "0:"
    INDEX 01 03:07:72
  TRACK 148 AUDIO
    TITLE "17:cjc171_08254"
    INDEX 01 03:08:28
  TRACK 149 AUDIO
    TITLE "0:"
    INDEX 01 03:10:41
  TRACK 150 AUDIO
    TITLE "18:cjc171_08255"
    INDEX 01 03:11:28
  TRACK 151 AUDIO
    TITLE "0:"
    INDEX 01 03:13:43
  TRACK 152 AUDIO
    TITLE "16:cjc171_08256"
    INDEX 01 03:14:46
  TRACK 153 AUDIO
    TITLE "0:"
    INDEX 01 03:15:67
  TRACK 154 AUDIO
    TITLE "17:cjc171_08257"
    INDEX 01 03:16:22
  TRACK 155 AUDIO
    TITLE "0:"
    INDEX 01 03:18:72
  TRACK 156 AUDIO
    TITLE "18:cjc171_08258"
    INDEX 01 03:19:52
  TRACK 157 AUDIO
    TITLE "0:"
    INDEX 01 03:22:22
  TRACK 158 AUDIO
    TITLE "16:cjc171_08259"
    INDEX 01 03:23:28
  TRACK 159 AUDIO
    TITLE "0:"
    INDEX 01 03:24:45
  TRACK 160 AUDIO
    TITLE "17:cjc171_08260"
    INDEX 01 03:24:74
  TRACK 161 AUDIO
    TITLE "0:"
    INDEX 01 03:27:65
  TRACK 162 AUDIO
    TITLE "18:cjc171_08261"
    INDEX 01 03:28:45
  TRACK 163 AUDIO
    TITLE "0:"
    INDEX 01 03:31:35
  TRACK 164 AUDIO
    TITLE "16:cjc171_08262"
    INDEX 01 03:32:36
  TRACK 165 AUDIO
    TITLE "0:"
    INDEX 01 03:33:48
  TRACK 166 AUDIO
    TITLE "17:cjc171_08263"
    INDEX 01 03:34:02
  TRACK 167 AUDIO
    TITLE "0:"
    INDEX 01 03:37:00
  TRACK 168 AUDIO
    TITLE "18:cjc171_08264"
    INDEX 01 03:37:51
  TRACK 169 AUDIO
    TITLE "0:"
    INDEX 01 03:40:52
  TRACK 170 AUDIO
    TITLE "16:cjc171_08265"
    INDEX 01 03:41:47
  TRACK 171 AUDIO
    TITLE "0:"
    INDEX 01 03:43:03
  TRACK 172 AUDIO
    TITLE "17:cjc171_08266"
    INDEX 01 03:43:23
  TRACK 173 AUDIO
    TITLE "0:"
    INDEX 01 03:45:53
  TRACK 174 AUDIO
    TITLE "18:cjc171_08267"
    INDEX 01 03:46:21
  TRACK 175 AUDIO
    TITLE "0:"
    INDEX 01 03:48:53
  TRACK 176 AUDIO
    TITLE "16:cjc171_08268"
    INDEX 01 03:49:47
  TRACK 177 AUDIO
    TITLE "0:"
    INDEX 01 03:50:58
  TRACK 178 AUDIO
    TITLE "17:cjc171_08269"
    INDEX 01 03:51:03
  TRACK 179 AUDIO
    TITLE "0:"
    INDEX 01 03:52:47
  TRACK 180 AUDIO
    TITLE "18:cjc171_08270"
    INDEX 01 03:53:19
  TRACK 181 AUDIO
    TITLE "0:"
    INDEX 01 03:54:66
